<?xml version="1.0" encoding="UTF-8" standalone="no"?>
<svg xmlns="http://www.w3.org/2000/svg" width="200" height="200" viewBox="0 0 100 100">
    <!-- تعريفات التدرج اللوني والمرشحات -->
    <defs>
        <!-- تدرج لوني لأيقونة الهاتف -->
        <linearGradient id="gradient" x1="0%" y1="0%" x2="100%" y2="100%">
            <stop offset="0%" style="stop-color:#4a90e2;stop-opacity:1" />
            <stop offset="100%" style="stop-color:#0056b3;stop-opacity:1" />
        </linearGradient>

        <!-- تدرج لوني للشاشة -->
        <linearGradient id="screenGradient" x1="0%" y1="0%" x2="100%" y2="0%">
            <stop offset="0%" style="stop-color:#ffffff;stop-opacity:1" />
            <stop offset="100%" style="stop-color:#d9e9f7;stop-opacity:1" />
        </linearGradient>

        <!-- تأثير الظل -->
        <filter id="shadow" x="-20%" y="-20%" width="140%" height="140%">
            <feGaussianBlur in="SourceAlpha" stdDeviation="4" />
            <feOffset dx="0" dy="3" result="offsetblur" />
            <feFlood flood-color="#000000" flood-opacity="0.2" />
            <feComposite in2="offsetblur" operator="in" />
            <feMerge>
                <feMergeNode />
                <feMergeNode in="SourceGraphic" />
            </feMerge>
        </filter>
    </defs>

    <!-- المجموعة الرئيسية للشعار -->
    <g transform="translate(10, 15)" filter="url(#shadow)">
        <!-- هيكل الهاتف -->
        <path d="M20,0 L60,0 C70,0 75,5 75,15 L75,55 C75,65 70,70 60,70 L20,70 C10,70 5,65 5,55 L5,15 C5,5 10,0 20,0 Z" 
              fill="url(#gradient)" rx="10" ry="10" />

        <!-- شاشة الهاتف -->
        <rect x="25" y="10" width="30" height="40" rx="5" ry="5" fill="url(#screenGradient)" />
        
        <!-- زر الهاتف -->
        <circle cx="50" cy="60" r="4" fill="#ffffff" stroke="#d9d9d9" stroke-width="0.5" />
    </g>
</svg>
